# xmcd
#
# Track frame offsets:
#	150
#	18264
#	33664
#	43786
#	59200
#	70147
#	85835
#	97776
#	117970
#	135233
#
# Disc length: 1988 seconds
#
# Revision: 1
# Processed by: cddbd v1.5.2PL0 Copyright (c) Steve Scherf et al.
# Submitted via: EasyCDDAExtractor 10.0.2.1
#
DISCID=8007c20a
DTITLE=Various Artist - Wright At Home
DYEAR=1900
DGENRE=Gospel
TTITLE0=Dixie Melody Boys - God's Christmas
TTITLE1=Jericho - How Do You Welcome A King?
TTITLE2=Joshua - Come On Ring Those Bells
TTITLE3=Dixie Melody Boys - Dawn Of Redeeming Grace
TTITLE4=Jericho - Joy To The World/Hark The Herald Angels Sing
TTITLE5=Joshua - Christmas Praise
TTITLE6=Jericho - Away In A Manger
TTITLE7=Joshua - Oh Holy Night
TTITLE8=Dixie Melody Boys - Beautiful Star Of Bethlehem
TTITLE9=Dixie Melody Boys - Born In Bethlehem
EXTD=ID3G: 38
EXTT0=
EXTT1=
EXTT2=
EXTT3=
EXTT4=
EXTT5=
EXTT6=
EXTT7=
EXTT8=
EXTT9=
PLAYORDER=
